<svg width="653" height="145" viewBox="0 0 653 145" fill="none" xmlns="http://www.w3.org/2000/svg">
<path d="M97.4352 0H124.605V145H97.4352V0Z" fill="#3366FF"/>
<path fill-rule="evenodd" clip-rule="evenodd" d="M97.4347 94.3954C97.4347 122.343 75.6232 144.999 48.7174 144.999C21.8115 144.999 0 122.343 0 94.3954C0 66.4476 21.8115 43.7914 48.7174 43.7914C75.6232 43.7914 97.4347 66.4476 97.4347 94.3954ZM48.7166 71.0403C36.2985 71.0403 26.2317 81.0995 26.2317 93.508V95.284C26.2317 107.693 36.2985 117.752 48.7166 117.752C61.1347 117.752 71.2015 107.693 71.2015 95.284V93.508C71.2015 81.0994 61.1347 71.0403 48.7166 71.0403Z" fill="#3366FF"/>
<path d="M444.078 44.7649H474.175L496.755 115.706L519.965 44.7649H549.945L513.289 145H480.221L444.078 44.7649Z" fill="#3366FF"/>
<path d="M564.933 44.7649H592.102V71.0401V145H564.933V44.7649Z" fill="#3366FF"/>
<path d="M592.102 71.0401C592.11 54.5049 603.813 44.7649 618.495 44.7649H625.83C640.835 44.7649 652.999 57.4001 652.999 72.9864V145H625.83V71.0401H592.102Z" fill="#3366FF"/>
<path fill-rule="evenodd" clip-rule="evenodd" d="M284.809 144.999C311.715 144.999 333.527 122.343 333.527 94.3954C333.527 66.4476 311.715 43.7914 284.809 43.7914C257.903 43.7914 236.092 66.4476 236.092 94.3954C236.092 122.343 257.903 144.999 284.809 144.999ZM262.326 93.5081C262.326 81.0995 272.392 71.0403 284.81 71.0403C297.229 71.0403 307.295 81.0995 307.295 93.508V95.284C307.295 107.693 297.229 117.752 284.81 117.752C272.392 117.752 262.326 107.693 262.326 95.284V93.5081Z" fill="#3366FF"/>
<path d="M360.697 44.765H333.527V145H360.697V44.765Z" fill="#3366FF"/>
<path d="M139.065 42.2917H188.719V69.2034C188.724 54.1019 197.536 42.2917 215.621 42.2917L226.753 42.2917V69.2152H188.719V118.076H211.204V145H139.065V118.076H161.55V69.2152H139.065V42.2917Z" fill="#3366FF"/>
<path d="M400.982 0H428.151V28.2215H400.982V0Z" fill="#3366FF"/>
<path d="M378.496 44.7649H428.151V118.725H450.635V145H378.496V118.725H400.982V71.0401H378.496V44.7649Z" fill="#3366FF"/>
</svg>
